HIERARCHY
ROOT Hips
{
	OFFSET 0.000000 0.000000 0.000000 
	CHANNELS 6 Xposition Yposition Zposition Yrotation Zrotation Xrotation 
	JOINT Lumbar
	{
		OFFSET 0.000000 0.000000 0.000000 
		CHANNELS 3 Zrotation Xrotation Yrotation
		JOINT Neck
		{
			OFFSET 0.000000 0.445665 0.000000 
			CHANNELS 3 Zrotation Xrotation Yrotation
			End Site
			{
				OFFSET 0.000000 0.227535 0.000000 
			}
		}
		JOINT RightShoulder
		{
			OFFSET 0.019635 0.377685 0.194865 
			CHANNELS 3 Zrotation Xrotation Yrotation
			JOINT RightElbow
			{
				OFFSET 0.000000 -0.243375 0.000000 
				CHANNELS 2 Zrotation Yrotation
				JOINT RightWrist
				{
					OFFSET 0.000000 -0.264825 0.000000 
					CHANNELS 2 Zrotation Xrotation
					End Site
					{
						OFFSET 0.006600 -0.176220 0.000990 
					}
				}
			}
		}
		JOINT LeftShoulder
		{
			OFFSET 0.019635 0.377685 -0.194865 
			CHANNELS 3 Zrotation Xrotation Yrotation
			JOINT LeftElbow
			{
				OFFSET 0.000000 -0.243375 0.000000 
				CHANNELS 2 Zrotation Yrotation
				JOINT LeftWrist
				{
					OFFSET 0.000000 -0.264825 0.000000 
					CHANNELS 2 Zrotation Xrotation
					End Site
					{
						OFFSET 0.006600 -0.176220 -0.000990 
					}
				}
			}
		}
	}
	JOINT RightHip
	{
		OFFSET 0.052140 -0.069960 0.075570 
		CHANNELS 3 Zrotation Xrotation Yrotation
		JOINT RightKnee
		{
			OFFSET 0.000000 -0.402270 0.000000 
			CHANNELS 1 Zrotation
			JOINT RightAnkle
			{
				OFFSET 0.000000 -0.404085 0.000000 
				CHANNELS 3 Zrotation Xrotation Yrotation
				End Site
				{
					OFFSET 0.204105 -0.089430 0.008415 
				}
			}
		}
	}
	JOINT LeftHip
	{
		OFFSET 0.052140 -0.069960 -0.075570 
		CHANNELS 3 Zrotation Xrotation Yrotation
		JOINT LeftKnee
		{
			OFFSET 0.000000 -0.402270 0.000000 
			CHANNELS 1 Zrotation
			JOINT LeftAnkle
			{
				OFFSET 0.000000 -0.404085 0.000000 
				CHANNELS 3 Zrotation Xrotation Yrotation
				End Site
				{
					OFFSET 0.204105 -0.089430 -0.008415 
				}
			}
		}
	}
}
MOTION
Frames: 22
Frame Time: 0.02
-0.00309 0.00117 0.00701 167.32092 -34.00674 -3.89135 44.75987 2.83218 -8.10719 -14.2758 8.34336 -0.61726 -13.83574 -14.3532 -2.82478 32.20567 108.40233 8.26049 5.38159 -31.53536 13.34028 -10.39983 47.47618 -94.15311 11.48491 0.42361 35.86329 -4.43909 -1.17691 -18.19399 -8.07489 -3.87729 -2.73276 38.63481 9.72424 9.41322 -27.52513 -8.42826 4.48876 3.09177
-0.00086 0.00087 0.01023 166.68327 -34.07811 -3.99358 44.59341 2.55485 -8.45453 -14.40735 8.25038 -0.61762 -14.30554 -14.22198 -2.21014 32.87097 106.402 8.03346 4.76051 -31.47362 13.91267 -9.88619 47.15909 -94.32477 11.5361 0.39597 36.62651 -4.55104 -1.19566 -18.77305 -8.16452 -3.84661 -2.71815 38.78767 9.47179 9.19169 -27.52572 -8.44959 4.54266 3.12696
0.00136 0.00057 0.01343 166.04686 -34.14931 -4.09587 44.42747 2.27791 -8.80107 -14.53864 8.15753 -0.61797 -14.77487 -14.09064 -1.59741 33.53381 104.40802 7.80723 4.14137 -31.4112 14.48394 -9.37249 46.84142 -94.49603 11.58714 0.3684 37.3886 -4.66241 -1.21452 -19.35182 -8.254 -3.81597 -2.70356 38.94013 9.22026 8.97082 -27.52631 -8.47085 4.59642 3.16207
0.00358 0.00027 0.01664 165.41104 -34.22047 -4.19784 44.26152 2.00135 -9.14739 -14.66981 8.06481 -0.61833 -15.24335 -13.95974 -0.98463 34.19702 102.41388 7.58092 3.5222 -31.34954 15.05468 -8.86017 46.52505 -94.66719 11.63818 0.34084 38.14968 -4.77398 -1.23322 -19.92936 -8.34337 -3.78537 -2.68899 39.09253 8.9686 8.74996 -27.5269 -8.49211 4.65016 3.19716
0.00581 -3e-05 0.01985 164.77426 -34.29176 -4.29964 44.09505 1.72459 -9.49439 -14.80117 7.972 -0.61869 -15.712 -13.82916 -0.37002 34.86276 100.41334 7.35377 2.90108 -31.28879 15.62628 -8.3485 46.20984 -94.83867 11.68936 0.31324 38.91141 -4.8862 -1.25179 -20.50655 -8.43285 -3.75474 -2.67438 39.2453 8.71599 8.52847 -27.52751 -8.51344 4.70401 3.23233
0.00802 -0.00032 0.02304 164.13871 -34.36278 -4.40293 43.93024 1.44732 -9.83995 -14.93231 7.87909 -0.61905 -16.18275 -13.69624 0.23868 35.51943 98.43325 7.1295 2.28612 -31.22283 16.19682 -7.83057 45.88704 -95.00945 11.74011 0.28572 39.67416 -4.99578 -1.27128 -21.08854 -8.52232 -3.72411 -2.65985 39.39706 8.46675 8.30894 -27.52804 -8.53457 4.75759 3.26729
0.01026 -0.00063 0.02627 163.50133 -34.43428 -4.50308 43.76226 1.17134 -10.18805 -15.06377 7.78646 -0.61941 -16.6486 -13.56815 0.85879 36.19378 96.41432 6.89969 1.65948 -31.16762 16.76888 -7.32585 45.57984 -95.1815 11.79169 0.25807 40.43412 -5.11059 -1.28879 -21.66043 -8.61172 -3.69348 -2.64518 39.55073 8.21096 8.08568 -27.52875 -8.55606 4.81167 3.30264
0.01248 -0.00092 0.02946 162.86575 -34.5053 -4.60617 43.5972 0.89421 -10.53374 -15.1949 7.69361 -0.61976 -17.11924 -13.43565 1.46805 36.85155 94.43096 6.67499 1.04356 -31.10218 17.33953 -6.80887 45.25831 -95.35229 11.84243 0.23054 41.19647 -5.22048 -1.30829 -22.24128 -8.70115 -3.66292 -2.63066 39.70256 7.96131 7.86591 -27.52926 -8.57724 4.86528 3.33763
0.01466 -0.00121 0.03261 162.23153 -34.57594 -4.71278 43.43569 0.61533 -10.87696 -15.32585 7.60029 -0.62013 -17.59502 -13.29742 2.06561 37.49034 92.49126 6.45645 0.4407 -31.02531 17.90884 -6.27672 44.91864 -95.522 11.89246 0.20313 41.96297 -5.32476 -1.32964 -22.83502 -8.79081 -3.63213 -2.6162 39.85254 7.71869 7.65009 -27.52966 -8.59799 4.91838 3.37218
0.01702 -0.00155 0.03604 161.58692 -34.64937 -4.79895 43.25369 0.34548 -11.23583 -15.45849 7.50908 -0.62048 -18.03913 -13.19115 2.7352 38.24222 90.30083 6.2022 -0.23747 -31.01738 18.48705 -5.83124 44.68144 -95.69931 11.94752 0.17497 42.70935 -5.46253 -1.33857 -23.36044 -8.87973 -3.60172 -2.60102 40.01437 7.43419 7.41057 -27.53107 -8.62105 4.97458 3.40928
0.01901 -0.00177 0.03885 160.96598 -34.71652 -4.92831 43.11496 0.05732 -11.56072 -15.58715 7.41381 -0.62085 -18.55124 -13.01818 3.24975 38.753 88.63922 6.02345 -0.7566 -30.86209 19.04558 -5.2035 44.22944 -95.85968 11.99138 0.14841 43.49561 -5.52888 -1.37485 -24.02605 -8.96981 -3.5711 -2.58762 40.1504 7.23898 7.22172 -27.53011 -8.63932 5.02412 3.44097
0.02002 -0.00168 0.03997 160.39543 -34.76932 -5.17664 43.09599 -0.28788 -11.79884 -15.70805 7.30414 -0.62129 -19.24226 -12.65478 3.36051 38.61659 88.44421 6.05258 -0.83632 -30.31416 19.55684 -4.0662 43.17118 -95.98056 12.00907 0.12614 44.41369 -5.40376 -1.47863 -25.11147 -9.06658 -3.53497 -2.57692 40.22111 7.28305 7.16629 -27.52461 -8.64383 5.05634 3.45824
0.02063 -0.00147 0.04044 159.85106 -34.8152 -5.46811 43.12029 -0.65004 -12.00115 -15.82429 7.1911 -0.62175 -20.00277 -12.22617 3.31199 38.23564 88.77739 6.15733 -0.75687 -29.61632 20.04678 -2.74852 41.90115 -96.08304 12.01473 0.10556 45.36741 -5.20619 -1.61202 -26.32983 -9.16385 -3.49949 -2.5684 40.26468 7.41751 7.16174 -27.5164 -8.64379 5.08177 3.47007
0.0214 -0.00131 0.04119 159.30454 -34.86244 -5.7397 43.12414 -1.00022 -12.21632 -15.94066 7.08158 -0.62219 -20.73684 -11.83174 3.32169 37.95692 88.85871 6.22715 -0.75227 -28.97908 20.54248 -1.5183 40.73796 -96.18956 12.02282 0.08419 46.29057 -5.0387 -1.73582 -27.46618 -9.2586 -3.46698 -2.5603 40.31734 7.5148 7.13895 -27.5081 -8.64601 5.10955 3.48404
0.02231 -0.00118 0.04204 158.71804 -34.91748 -6.01308 43.13141 -1.36918 -12.44797 -16.06569 6.96319 -0.62265 -21.45036 -11.4164 3.38916 37.71439 88.99081 6.29985 -0.73691 -28.37228 21.05602 -0.26072 39.52626 -96.31475 12.04341 0.06267 47.27561 -4.88268 -1.84025 -28.69951 -9.36307 -3.42086 -2.54628 40.38448 7.59718 7.10001 -27.50522 -8.64673 5.14008 3.49915
0.02281 -0.00095 0.04251 158.21962 -34.95426 -6.29226 43.1418 -1.70219 -12.6341 -16.17122 6.86307 -0.62309 -22.2219 -11.03114 3.3007 37.33962 89.14255 6.38403 -0.70601 -27.66784 21.52572 0.97783 38.36961 -96.39609 12.03547 0.04218 48.13873 -4.68611 -1.99594 -29.75538 -9.44739 -3.40303 -2.54505 40.41395 7.73027 7.10129 -27.4906 -8.65033 5.16373 3.51091
0.02228 -0.00041 0.04213 157.97027 -34.94557 -6.58257 43.15011 -1.93899 -12.7268 -16.2271 6.80904 -0.62344 -23.1461 -10.72849 2.80224 36.65145 89.21588 6.48492 -0.67373 -26.72014 21.89282 2.15902 37.38127 -96.36621 11.94891 0.02126 48.66918 -4.3908 -2.25146 -30.34868 -9.47634 -3.46512 -2.57925 40.35508 7.99629 7.24962 -27.44269 -8.65574 5.16603 3.51188
0.02134 0.00023 0.04138 157.80654 -34.9181 -6.87593 43.16009 -2.13765 -12.7708 -16.26287 6.77441 -0.62377 -24.12377 -10.46161 2.15562 35.84058 89.29144 6.59411 -0.63088 -25.68153 22.21362 3.30675 36.46221 -96.29191 11.8347 0.00182 49.07347 -4.0578 -2.56318 -30.74825 -9.48518 -3.55548 -2.62625 40.25735 8.30754 7.42885 -27.38332 -8.66543 5.16231 3.51012
0.02056 0.00081 0.04077 157.59535 -34.89713 -7.16448 43.16936 -2.34907 -12.82133 -16.30592 6.73436 -0.62411 -25.07164 -10.18899 1.58917 35.09082 89.36775 6.69711 -0.5912 -24.69113 22.54751 4.44483 35.53497 -96.23435 11.73484 -0.01637 49.52702 -3.7453 -2.87277 -31.19619 -9.50259 -3.63134 -2.66682 40.17176 8.58801 7.56053 -27.33021 -8.6781 5.16409 3.51155
0.01989 0.00146 0.04027 157.42047 -34.88465 -7.46996 43.17988 -2.5805 -12.93537 -16.35694 6.68011 -0.62443 -26.04813 -9.86913 0.96378 34.3085 89.4541 6.81282 -0.5528 -23.66557 22.91607 5.69697 34.50252 -96.19043 11.62658 -0.04246 50.01533 -3.41697 -3.08778 -31.81332 -9.52126 -3.71338 -2.70957 40.10938 8.9142 7.83031 -27.27262 -8.67038 5.15432 3.50483
0.01888 0.00199 0.03945 157.19085 -34.84998 -7.73913 43.1877 -2.76082 -12.90745 -16.38632 6.65975 -0.6248 -26.97306 -9.65769 0.42704 33.56983 89.5144 6.9032 -0.51137 -22.6946 23.19941 6.69772 33.70769 -96.10815 11.52998 -0.05195 50.40154 -3.11245 -3.50868 -32.034 -9.53398 -3.7903 -2.75141 39.98874 9.1555 7.82558 -27.22161 -8.70549 5.16685 3.5142
0.01706 0.00219 0.03791 156.78218 -34.75988 -7.91715 43.18687 -2.8106 -12.48797 -16.36358 6.73109 -0.62533 -27.77344 -9.73203 0.18259 32.96907 89.489 6.91978 -0.46428 -21.88869 23.27827 7.0387 33.56017 -95.93194 11.46852 -0.01492 50.52923 -2.89372 -4.519 -31.17503 -9.52247 -3.8369 -2.78205 39.72557 9.14398 6.99876 -27.19217 -8.86401 5.24608 3.57139
